<svg width="48" height="48" viewBox="0 0 48 48" fill="none" xmlns="http://www.w3.org/2000/svg">
<path d="M23 4C33.4751 4 41.9999 12.5417 42 23.0107C42 33.4799 33.4752 42 23 42C12.5249 42 4.00011 33.4583 4 22.9893C4 12.5201 12.5248 4 23 4ZM23 9.69434C22.1016 9.69434 21.3566 10.439 21.3564 11.3369V22.2881C21.3564 22.3093 21.3585 22.3305 21.3594 22.3516C19.9685 22.978 19 24.3756 19 26C19 28.2091 20.7909 30 23 30C25.2091 30 27 28.2091 27 26C27 24.3753 26.0309 22.9778 24.6396 22.3516C24.6405 22.3305 24.6436 22.3093 24.6436 22.2881V11.3369C24.6434 10.439 23.8984 9.69434 23 9.69434Z" fill="url(#paint0_linear_132_282)"/>
<defs>
<linearGradient id="paint0_linear_132_282" x1="23" y1="4" x2="23" y2="42" gradientUnits="userSpaceOnUse">
<stop stop-color="white"/>
<stop offset="1" stop-color="#999999"/>
</linearGradient>
</defs>
</svg>
