<svg width="24" height="24" viewBox="0 0 24 24" fill="none" xmlns="http://www.w3.org/2000/svg">
<path d="M7.27004 13.01C6.74004 12.74 6.15004 12.6 5.55004 12.6C0.870039 12.93 0.870039 19.74 5.55004 20.07H16.64C17.99 20.08 19.29 19.58 20.28 18.67C23.57 15.8 21.81 10.03 17.48 9.48C15.92 0.110001 2.39004 3.67 5.60004 12.6" stroke="white" stroke-width="1.5" stroke-miterlimit="10" stroke-linecap="round" stroke-linejoin="round"/>
<path d="M16.5007 2.54724C16.9781 2.09836 17.6258 2.25062 18.0037 2.41052V2.40955C20.2521 3.35776 21.8277 5.59039 21.7468 8.18396L21.7341 8.43689C21.6794 9.21529 21.4698 9.95429 21.1384 10.6263C20.7933 10.2373 20.3963 9.89072 19.9509 9.60193C20.1071 9.1998 20.207 8.77293 20.238 8.33044V8.32849L20.2478 8.14001C20.3026 6.39011 19.3501 4.84913 17.906 4.03357C18.0655 4.54671 18.1512 5.0917 18.1472 5.65857V5.65955C18.1443 6.34942 18.0051 7.01162 17.7585 7.62341C17.4724 6.86182 17.0952 6.20042 16.6462 5.63708L16.6433 5.44177C16.6211 4.95699 16.5087 4.49716 16.323 4.07263V4.07166C16.1572 3.6909 16.0003 3.01829 16.5007 2.54724Z" fill="white"/>
<path d="M15.8501 9.92001C16.3701 9.66001 16.9401 9.52001 17.5201 9.51001" stroke="white" stroke-width="1.5" stroke-miterlimit="10" stroke-linecap="round" stroke-linejoin="round"/>
</svg>
