<svg width="48" height="48" viewBox="0 0 48 48" fill="none" xmlns="http://www.w3.org/2000/svg">
<path d="M24.8133 18.9466C24.3333 18.5733 23.6667 18.5733 23.1867 18.9466C20.6534 20.88 13.1734 27.1866 13.2134 34.5333C13.2134 40.48 18.0534 45.3333 24.0134 45.3333C29.9734 45.3333 34.8133 40.4933 34.8133 34.5466C34.8267 27.3066 27.3333 20.8933 24.8133 18.9466Z" fill="url(#paint0_linear_132_271)"/>
<path d="M36.5083 3.84163C36.2083 3.60829 35.7917 3.60829 35.4917 3.84163C33.9083 5.04996 29.2333 8.99163 29.2583 13.5833C29.2583 17.3 32.2833 20.3333 36.0083 20.3333C39.7333 20.3333 42.7583 17.3083 42.7583 13.5916C42.7667 9.06663 38.0833 5.05829 36.5083 3.84163Z" fill="url(#paint1_linear_132_271)"/>
<path d="M13.4067 7.47337C13.1667 7.28671 12.8334 7.28671 12.5934 7.47337C11.3267 8.44004 7.58671 11.5934 7.60671 15.2667C7.60671 18.24 10.0267 20.6667 13.0067 20.6667C15.9867 20.6667 18.4067 18.2467 18.4067 15.2734C18.4134 11.6534 14.6667 8.44671 13.4067 7.47337Z" fill="url(#paint2_linear_132_271)"/>
<defs>
<linearGradient id="paint0_linear_132_271" x1="24.0133" y1="18.6666" x2="24.0133" y2="45.3333" gradientUnits="userSpaceOnUse">
<stop stop-color="#B7DEFA"/>
<stop offset="1" stop-color="#9AD6FF"/>
</linearGradient>
<linearGradient id="paint1_linear_132_271" x1="36.0083" y1="3.66663" x2="36.0083" y2="20.3333" gradientUnits="userSpaceOnUse">
<stop stop-color="#B7DEFA"/>
<stop offset="1" stop-color="#9AD6FF"/>
</linearGradient>
<linearGradient id="paint2_linear_132_271" x1="13.0067" y1="7.33337" x2="13.0067" y2="20.6667" gradientUnits="userSpaceOnUse">
<stop stop-color="#B7DEFA"/>
<stop offset="1" stop-color="#9AD6FF"/>
</linearGradient>
</defs>
</svg>
