<svg width="238" height="33" viewBox="0 0 238 33" fill="none" xmlns="http://www.w3.org/2000/svg">
<rect width="33" height="33" rx="8" fill="#515151" fill-opacity="0.2"/>
<rect x="0.5" y="0.5" width="32" height="32" rx="7.5" stroke="white" stroke-opacity="0.2"/>
<path d="M22.1875 25.9062C20.14 25.9062 18.4687 24.235 18.4687 22.1875V21.75C18.4687 21.3912 18.7662 21.0937 19.125 21.0937C19.4837 21.0937 19.7812 21.3912 19.7812 21.75V22.1875C19.7812 23.5175 20.8575 24.5937 22.1875 24.5937C23.5175 24.5937 24.5937 23.5175 24.5937 22.1875C24.5937 20.8575 23.5175 19.7812 22.1875 19.7812H7.75C7.39125 19.7812 7.09375 19.4837 7.09375 19.125C7.09375 18.7662 7.39125 18.4688 7.75 18.4688H22.1875C24.235 18.4688 25.9062 20.14 25.9062 22.1875C25.9062 24.235 24.235 25.9062 22.1875 25.9062Z" fill="white"/>
<path opacity="0.4" d="M22.1875 17.1563H7.75C7.39125 17.1563 7.09375 16.8588 7.09375 16.5C7.09375 16.1413 7.39125 15.8438 7.75 15.8438H22.1875C23.5175 15.8438 24.5937 14.7675 24.5937 13.4375C24.5937 12.1075 23.5175 11.0313 22.1875 11.0313C20.8575 11.0313 19.7812 12.1075 19.7812 13.4375V13.875C19.7812 14.2338 19.4837 14.5313 19.125 14.5313C18.7662 14.5313 18.4687 14.2338 18.4687 13.875V13.4375C18.4687 11.39 20.14 9.71877 22.1875 9.71877C24.235 9.71877 25.9062 11.39 25.9062 13.4375C25.9062 15.485 24.235 17.1563 22.1875 17.1563Z" fill="white"/>
<path d="M14.1463 14.5313H7.75C7.39125 14.5313 7.09375 14.2338 7.09375 13.875C7.09375 13.5163 7.39125 13.2188 7.75 13.2188H14.1463C15.0825 13.2188 15.8438 12.4575 15.8438 11.5213C15.8438 10.585 15.0825 9.82376 14.1463 9.82376C13.21 9.82376 12.4487 10.585 12.4487 11.5213V11.8538C12.4487 12.2125 12.1512 12.51 11.7925 12.51C11.4337 12.51 11.1362 12.2213 11.1362 11.8538V11.5213C11.1362 9.85876 12.4838 8.51126 14.1463 8.51126C15.8088 8.51126 17.1562 9.85876 17.1562 11.5213C17.1562 13.1838 15.8088 14.5313 14.1463 14.5313Z" fill="white"/>
<path d="M46.8 24.192C46.368 24.192 46.016 24.088 45.744 23.88C45.488 23.672 45.28 23.344 45.12 22.896L40.104 8.712C39.928 8.2 39.96 7.768 40.2 7.416C40.456 7.064 40.88 6.888 41.472 6.888C41.904 6.888 42.24 6.992 42.48 7.2C42.72 7.392 42.912 7.704 43.056 8.136L47.376 20.952H46.416L50.928 8.16C51.088 7.728 51.288 7.408 51.528 7.2C51.768 6.992 52.08 6.888 52.464 6.888C52.848 6.888 53.152 6.992 53.376 7.2C53.6 7.408 53.792 7.736 53.952 8.184L58.32 20.952H57.48L61.872 8.136C62.016 7.72 62.208 7.408 62.448 7.2C62.688 6.992 63.016 6.888 63.432 6.888C63.944 6.888 64.32 7.064 64.56 7.416C64.8 7.768 64.832 8.2 64.656 8.712L59.592 22.92C59.432 23.352 59.224 23.672 58.968 23.88C58.712 24.088 58.368 24.192 57.936 24.192C57.504 24.192 57.16 24.088 56.904 23.88C56.648 23.672 56.44 23.344 56.28 22.896L52.104 10.992H52.656L48.432 22.92C48.272 23.352 48.064 23.672 47.808 23.88C47.568 24.088 47.232 24.192 46.8 24.192ZM71.5628 24.24C70.2348 24.24 69.0908 23.992 68.1308 23.496C67.1708 23 66.4268 22.296 65.8988 21.384C65.3868 20.472 65.1308 19.392 65.1308 18.144C65.1308 16.928 65.3788 15.864 65.8748 14.952C66.3868 14.04 67.0828 13.328 67.9628 12.816C68.8588 12.288 69.8748 12.024 71.0108 12.024C71.8428 12.024 72.5868 12.16 73.2428 12.432C73.9148 12.704 74.4828 13.096 74.9468 13.608C75.4268 14.12 75.7868 14.744 76.0268 15.48C76.2828 16.2 76.4108 17.016 76.4108 17.928C76.4108 18.216 76.3068 18.44 76.0988 18.6C75.9068 18.744 75.6268 18.816 75.2588 18.816H67.5548V17.088H74.2988L73.9148 17.448C73.9148 16.712 73.8028 16.096 73.5788 15.6C73.3708 15.104 73.0588 14.728 72.6428 14.472C72.2428 14.2 71.7388 14.064 71.1308 14.064C70.4588 14.064 69.8828 14.224 69.4028 14.544C68.9388 14.848 68.5788 15.288 68.3228 15.864C68.0828 16.424 67.9628 17.096 67.9628 17.88V18.048C67.9628 19.36 68.2668 20.344 68.8748 21C69.4988 21.64 70.4108 21.96 71.6108 21.96C72.0268 21.96 72.4908 21.912 73.0028 21.816C73.5308 21.704 74.0268 21.52 74.4908 21.264C74.8268 21.072 75.1228 20.992 75.3788 21.024C75.6348 21.04 75.8348 21.128 75.9788 21.288C76.1388 21.448 76.2348 21.648 76.2668 21.888C76.2988 22.112 76.2508 22.344 76.1228 22.584C76.0108 22.824 75.8108 23.032 75.5228 23.208C74.9628 23.56 74.3148 23.824 73.5788 24C72.8588 24.16 72.1868 24.24 71.5628 24.24ZM82.6506 24.24C81.8026 24.24 81.0426 24.08 80.3706 23.76C79.7146 23.424 79.1946 22.976 78.8106 22.416C78.4426 21.856 78.2586 21.224 78.2586 20.52C78.2586 19.656 78.4826 18.976 78.9306 18.48C79.3786 17.968 80.1066 17.6 81.1146 17.376C82.1226 17.152 83.4746 17.04 85.1706 17.04H86.3706V18.768H85.1946C84.2026 18.768 83.4106 18.816 82.8186 18.912C82.2266 19.008 81.8026 19.176 81.5466 19.416C81.3066 19.64 81.1866 19.96 81.1866 20.376C81.1866 20.904 81.3706 21.336 81.7386 21.672C82.1066 22.008 82.6186 22.176 83.2746 22.176C83.8026 22.176 84.2666 22.056 84.6666 21.816C85.0826 21.56 85.4106 21.216 85.6506 20.784C85.8906 20.352 86.0106 19.856 86.0106 19.296V16.536C86.0106 15.736 85.8346 15.16 85.4826 14.808C85.1306 14.456 84.5386 14.28 83.7066 14.28C83.2426 14.28 82.7386 14.336 82.1946 14.448C81.6666 14.56 81.1066 14.752 80.5146 15.024C80.2106 15.168 79.9386 15.208 79.6986 15.144C79.4746 15.08 79.2986 14.952 79.1706 14.76C79.0426 14.552 78.9786 14.328 78.9786 14.088C78.9786 13.848 79.0426 13.616 79.1706 13.392C79.2986 13.152 79.5146 12.976 79.8186 12.864C80.5546 12.56 81.2586 12.344 81.9306 12.216C82.6186 12.088 83.2426 12.024 83.8026 12.024C84.9546 12.024 85.8986 12.2 86.6346 12.552C87.3866 12.904 87.9466 13.44 88.3146 14.16C88.6826 14.864 88.8666 15.776 88.8666 16.896V22.656C88.8666 23.152 88.7466 23.536 88.5066 23.808C88.2666 24.064 87.9226 24.192 87.4746 24.192C87.0266 24.192 86.6746 24.064 86.4186 23.808C86.1786 23.536 86.0586 23.152 86.0586 22.656V21.504H86.2506C86.1386 22.064 85.9146 22.552 85.5786 22.968C85.2586 23.368 84.8506 23.68 84.3546 23.904C83.8586 24.128 83.2906 24.24 82.6506 24.24ZM97.2876 24.24C96.2476 24.24 95.3756 24.064 94.6716 23.712C93.9836 23.36 93.4716 22.848 93.1356 22.176C92.7996 21.488 92.6316 20.64 92.6316 19.632V14.52H91.3836C90.9996 14.52 90.7036 14.424 90.4956 14.232C90.2876 14.024 90.1836 13.744 90.1836 13.392C90.1836 13.024 90.2876 12.744 90.4956 12.552C90.7036 12.36 90.9996 12.264 91.3836 12.264H92.6316V10.08C92.6316 9.584 92.7596 9.208 93.0156 8.952C93.2876 8.696 93.6636 8.568 94.1436 8.568C94.6236 8.568 94.9916 8.696 95.2476 8.952C95.5036 9.208 95.6316 9.584 95.6316 10.08V12.264H98.1756C98.5596 12.264 98.8556 12.36 99.0636 12.552C99.2716 12.744 99.3756 13.024 99.3756 13.392C99.3756 13.744 99.2716 14.024 99.0636 14.232C98.8556 14.424 98.5596 14.52 98.1756 14.52H95.6316V19.464C95.6316 20.232 95.7996 20.808 96.1356 21.192C96.4716 21.576 97.0156 21.768 97.7676 21.768C98.0396 21.768 98.2796 21.744 98.4876 21.696C98.6956 21.648 98.8796 21.616 99.0396 21.6C99.2316 21.584 99.3916 21.648 99.5196 21.792C99.6476 21.92 99.7116 22.192 99.7116 22.608C99.7116 22.928 99.6556 23.216 99.5436 23.472C99.4476 23.712 99.2636 23.88 98.9916 23.976C98.7836 24.04 98.5116 24.096 98.1756 24.144C97.8396 24.208 97.5436 24.24 97.2876 24.24ZM102.915 24.192C102.435 24.192 102.067 24.064 101.811 23.808C101.555 23.536 101.427 23.152 101.427 22.656V8.4C101.427 7.904 101.555 7.528 101.811 7.272C102.067 7.016 102.435 6.888 102.915 6.888C103.395 6.888 103.763 7.016 104.019 7.272C104.291 7.528 104.427 7.904 104.427 8.4V14.616H104.091C104.443 13.768 104.987 13.128 105.723 12.696C106.475 12.248 107.323 12.024 108.267 12.024C109.211 12.024 109.987 12.2 110.595 12.552C111.203 12.904 111.659 13.44 111.963 14.16C112.267 14.864 112.419 15.76 112.419 16.848V22.656C112.419 23.152 112.291 23.536 112.035 23.808C111.779 24.064 111.411 24.192 110.931 24.192C110.451 24.192 110.075 24.064 109.803 23.808C109.547 23.536 109.419 23.152 109.419 22.656V16.992C109.419 16.08 109.243 15.416 108.891 15C108.555 14.584 108.027 14.376 107.307 14.376C106.427 14.376 105.723 14.656 105.195 15.216C104.683 15.76 104.427 16.488 104.427 17.4V22.656C104.427 23.68 103.923 24.192 102.915 24.192ZM121.25 24.24C119.922 24.24 118.778 23.992 117.818 23.496C116.858 23 116.114 22.296 115.586 21.384C115.074 20.472 114.818 19.392 114.818 18.144C114.818 16.928 115.066 15.864 115.562 14.952C116.074 14.04 116.77 13.328 117.65 12.816C118.546 12.288 119.562 12.024 120.698 12.024C121.53 12.024 122.274 12.16 122.93 12.432C123.602 12.704 124.17 13.096 124.634 13.608C125.114 14.12 125.474 14.744 125.714 15.48C125.97 16.2 126.098 17.016 126.098 17.928C126.098 18.216 125.994 18.44 125.786 18.6C125.594 18.744 125.314 18.816 124.946 18.816H117.242V17.088H123.986L123.602 17.448C123.602 16.712 123.49 16.096 123.266 15.6C123.058 15.104 122.746 14.728 122.33 14.472C121.93 14.2 121.426 14.064 120.818 14.064C120.146 14.064 119.57 14.224 119.09 14.544C118.626 14.848 118.266 15.288 118.01 15.864C117.77 16.424 117.65 17.096 117.65 17.88V18.048C117.65 19.36 117.954 20.344 118.562 21C119.186 21.64 120.098 21.96 121.298 21.96C121.714 21.96 122.178 21.912 122.69 21.816C123.218 21.704 123.714 21.52 124.178 21.264C124.514 21.072 124.81 20.992 125.066 21.024C125.322 21.04 125.522 21.128 125.666 21.288C125.826 21.448 125.922 21.648 125.954 21.888C125.986 22.112 125.938 22.344 125.81 22.584C125.698 22.824 125.498 23.032 125.21 23.208C124.65 23.56 124.002 23.824 123.266 24C122.546 24.16 121.874 24.24 121.25 24.24ZM130.01 24.192C129.514 24.192 129.13 24.064 128.858 23.808C128.602 23.536 128.474 23.152 128.474 22.656V13.584C128.474 13.088 128.602 12.712 128.858 12.456C129.114 12.2 129.474 12.072 129.938 12.072C130.402 12.072 130.762 12.2 131.018 12.456C131.274 12.712 131.402 13.088 131.402 13.584V15.096H131.162C131.386 14.136 131.826 13.408 132.482 12.912C133.138 12.416 134.01 12.12 135.098 12.024C135.434 11.992 135.698 12.08 135.89 12.288C136.098 12.48 136.218 12.784 136.25 13.2C136.282 13.6 136.186 13.928 135.962 14.184C135.754 14.424 135.434 14.568 135.002 14.616L134.474 14.664C133.498 14.76 132.762 15.064 132.266 15.576C131.77 16.072 131.522 16.776 131.522 17.688V22.656C131.522 23.152 131.394 23.536 131.138 23.808C130.882 24.064 130.506 24.192 130.01 24.192ZM146.26 24.192C145.764 24.192 145.372 24.056 145.084 23.784C144.812 23.496 144.676 23.088 144.676 22.56V8.712C144.676 8.184 144.812 7.784 145.084 7.512C145.372 7.224 145.78 7.08 146.308 7.08H154.684C155.1 7.08 155.412 7.184 155.62 7.392C155.828 7.6 155.932 7.896 155.932 8.28C155.932 8.68 155.828 8.992 155.62 9.216C155.412 9.424 155.1 9.528 154.684 9.528H147.748V14.304H154.18C154.58 14.304 154.884 14.408 155.092 14.616C155.316 14.824 155.428 15.12 155.428 15.504C155.428 15.904 155.316 16.216 155.092 16.44C154.884 16.648 154.58 16.752 154.18 16.752H147.748V22.56C147.748 23.648 147.252 24.192 146.26 24.192ZM162.795 24.24C161.579 24.24 160.523 23.992 159.627 23.496C158.731 23 158.035 22.296 157.539 21.384C157.043 20.456 156.795 19.368 156.795 18.12C156.795 17.176 156.931 16.336 157.203 15.6C157.491 14.848 157.899 14.208 158.427 13.68C158.955 13.136 159.587 12.728 160.323 12.456C161.059 12.168 161.883 12.024 162.795 12.024C164.011 12.024 165.067 12.272 165.963 12.768C166.859 13.264 167.555 13.968 168.051 14.88C168.547 15.792 168.795 16.872 168.795 18.12C168.795 19.064 168.651 19.912 168.363 20.664C168.091 21.416 167.691 22.064 167.163 22.608C166.635 23.136 166.003 23.544 165.267 23.832C164.531 24.104 163.707 24.24 162.795 24.24ZM162.795 21.96C163.387 21.96 163.907 21.816 164.355 21.528C164.803 21.24 165.147 20.816 165.387 20.256C165.643 19.68 165.771 18.968 165.771 18.12C165.771 16.84 165.499 15.888 164.955 15.264C164.411 14.624 163.691 14.304 162.795 14.304C162.203 14.304 161.683 14.448 161.235 14.736C160.787 15.008 160.435 15.432 160.179 16.008C159.939 16.568 159.819 17.272 159.819 18.12C159.819 19.384 160.091 20.344 160.635 21C161.179 21.64 161.899 21.96 162.795 21.96ZM172.807 24.192C172.311 24.192 171.927 24.064 171.655 23.808C171.399 23.536 171.271 23.152 171.271 22.656V13.584C171.271 13.088 171.399 12.712 171.655 12.456C171.911 12.2 172.271 12.072 172.735 12.072C173.199 12.072 173.559 12.2 173.815 12.456C174.071 12.712 174.199 13.088 174.199 13.584V15.096H173.959C174.183 14.136 174.623 13.408 175.279 12.912C175.935 12.416 176.807 12.12 177.895 12.024C178.231 11.992 178.495 12.08 178.687 12.288C178.895 12.48 179.015 12.784 179.047 13.2C179.079 13.6 178.983 13.928 178.759 14.184C178.551 14.424 178.231 14.568 177.799 14.616L177.271 14.664C176.295 14.76 175.559 15.064 175.063 15.576C174.567 16.072 174.319 16.776 174.319 17.688V22.656C174.319 23.152 174.191 23.536 173.935 23.808C173.679 24.064 173.303 24.192 172.807 24.192ZM186.266 24.24C184.938 24.24 183.794 23.992 182.834 23.496C181.874 23 181.13 22.296 180.602 21.384C180.09 20.472 179.834 19.392 179.834 18.144C179.834 16.928 180.082 15.864 180.578 14.952C181.09 14.04 181.786 13.328 182.666 12.816C183.562 12.288 184.578 12.024 185.714 12.024C186.546 12.024 187.29 12.16 187.946 12.432C188.618 12.704 189.186 13.096 189.65 13.608C190.13 14.12 190.49 14.744 190.73 15.48C190.986 16.2 191.114 17.016 191.114 17.928C191.114 18.216 191.01 18.44 190.802 18.6C190.61 18.744 190.33 18.816 189.962 18.816H182.258V17.088H189.002L188.618 17.448C188.618 16.712 188.506 16.096 188.282 15.6C188.074 15.104 187.762 14.728 187.346 14.472C186.946 14.2 186.442 14.064 185.834 14.064C185.162 14.064 184.586 14.224 184.106 14.544C183.642 14.848 183.282 15.288 183.026 15.864C182.786 16.424 182.666 17.096 182.666 17.88V18.048C182.666 19.36 182.97 20.344 183.578 21C184.202 21.64 185.114 21.96 186.314 21.96C186.73 21.96 187.194 21.912 187.706 21.816C188.234 21.704 188.73 21.52 189.194 21.264C189.53 21.072 189.826 20.992 190.082 21.024C190.338 21.04 190.538 21.128 190.682 21.288C190.842 21.448 190.938 21.648 190.97 21.888C191.002 22.112 190.954 22.344 190.826 22.584C190.714 22.824 190.514 23.032 190.226 23.208C189.666 23.56 189.018 23.824 188.282 24C187.562 24.16 186.89 24.24 186.266 24.24ZM198.914 24.24C197.682 24.24 196.61 23.992 195.698 23.496C194.786 22.984 194.082 22.264 193.586 21.336C193.09 20.408 192.842 19.32 192.842 18.072C192.842 17.128 192.978 16.288 193.25 15.552C193.538 14.8 193.946 14.168 194.474 13.656C195.002 13.128 195.642 12.728 196.394 12.456C197.146 12.168 197.986 12.024 198.914 12.024C199.442 12.024 200.01 12.096 200.618 12.24C201.242 12.384 201.826 12.624 202.37 12.96C202.626 13.12 202.794 13.312 202.874 13.536C202.954 13.76 202.97 13.992 202.922 14.232C202.874 14.456 202.77 14.656 202.61 14.832C202.466 14.992 202.282 15.096 202.058 15.144C201.834 15.176 201.586 15.12 201.314 14.976C200.962 14.768 200.602 14.616 200.234 14.52C199.866 14.408 199.514 14.352 199.178 14.352C198.65 14.352 198.186 14.44 197.786 14.616C197.386 14.776 197.042 15.016 196.754 15.336C196.482 15.64 196.274 16.024 196.13 16.488C195.986 16.952 195.914 17.488 195.914 18.096C195.914 19.28 196.194 20.216 196.754 20.904C197.33 21.576 198.138 21.912 199.178 21.912C199.514 21.912 199.858 21.864 200.21 21.768C200.578 21.672 200.946 21.52 201.314 21.312C201.586 21.168 201.826 21.12 202.034 21.168C202.258 21.216 202.442 21.328 202.586 21.504C202.73 21.664 202.818 21.864 202.85 22.104C202.882 22.328 202.85 22.552 202.754 22.776C202.674 23 202.514 23.184 202.274 23.328C201.746 23.648 201.186 23.88 200.594 24.024C200.002 24.168 199.442 24.24 198.914 24.24ZM208.604 24.24C207.756 24.24 206.996 24.08 206.324 23.76C205.668 23.424 205.148 22.976 204.764 22.416C204.396 21.856 204.212 21.224 204.212 20.52C204.212 19.656 204.436 18.976 204.884 18.48C205.332 17.968 206.06 17.6 207.068 17.376C208.076 17.152 209.428 17.04 211.124 17.04H212.324V18.768H211.148C210.156 18.768 209.364 18.816 208.772 18.912C208.18 19.008 207.756 19.176 207.5 19.416C207.26 19.64 207.14 19.96 207.14 20.376C207.14 20.904 207.324 21.336 207.692 21.672C208.06 22.008 208.572 22.176 209.228 22.176C209.756 22.176 210.22 22.056 210.62 21.816C211.036 21.56 211.364 21.216 211.604 20.784C211.844 20.352 211.964 19.856 211.964 19.296V16.536C211.964 15.736 211.788 15.16 211.436 14.808C211.084 14.456 210.492 14.28 209.66 14.28C209.196 14.28 208.692 14.336 208.148 14.448C207.62 14.56 207.06 14.752 206.468 15.024C206.164 15.168 205.892 15.208 205.652 15.144C205.428 15.08 205.252 14.952 205.124 14.76C204.996 14.552 204.932 14.328 204.932 14.088C204.932 13.848 204.996 13.616 205.124 13.392C205.252 13.152 205.468 12.976 205.772 12.864C206.508 12.56 207.212 12.344 207.884 12.216C208.572 12.088 209.196 12.024 209.756 12.024C210.908 12.024 211.852 12.2 212.588 12.552C213.34 12.904 213.9 13.44 214.268 14.16C214.636 14.864 214.82 15.776 214.82 16.896V22.656C214.82 23.152 214.7 23.536 214.46 23.808C214.22 24.064 213.876 24.192 213.428 24.192C212.98 24.192 212.628 24.064 212.372 23.808C212.132 23.536 212.012 23.152 212.012 22.656V21.504H212.204C212.092 22.064 211.868 22.552 211.532 22.968C211.212 23.368 210.804 23.68 210.308 23.904C209.812 24.128 209.244 24.24 208.604 24.24ZM222.161 24.24C221.473 24.24 220.745 24.168 219.977 24.024C219.209 23.88 218.521 23.632 217.913 23.28C217.657 23.12 217.473 22.936 217.361 22.728C217.265 22.504 217.225 22.288 217.241 22.08C217.273 21.856 217.353 21.664 217.481 21.504C217.625 21.344 217.801 21.24 218.009 21.192C218.233 21.144 218.473 21.184 218.729 21.312C219.369 21.616 219.969 21.832 220.529 21.96C221.089 22.072 221.641 22.128 222.185 22.128C222.953 22.128 223.521 22 223.889 21.744C224.273 21.472 224.465 21.12 224.465 20.688C224.465 20.32 224.337 20.04 224.081 19.848C223.841 19.64 223.473 19.488 222.977 19.392L220.577 18.936C219.585 18.744 218.825 18.384 218.297 17.856C217.785 17.312 217.529 16.616 217.529 15.768C217.529 15 217.737 14.336 218.153 13.776C218.585 13.216 219.177 12.784 219.929 12.48C220.681 12.176 221.545 12.024 222.521 12.024C223.225 12.024 223.881 12.104 224.489 12.264C225.113 12.408 225.713 12.64 226.289 12.96C226.529 13.088 226.689 13.256 226.769 13.464C226.865 13.672 226.889 13.888 226.841 14.112C226.793 14.32 226.697 14.512 226.553 14.688C226.409 14.848 226.225 14.952 226.001 15C225.793 15.032 225.553 14.984 225.281 14.856C224.785 14.6 224.305 14.416 223.841 14.304C223.393 14.192 222.961 14.136 222.545 14.136C221.761 14.136 221.177 14.272 220.793 14.544C220.425 14.816 220.241 15.176 220.241 15.624C220.241 15.96 220.353 16.24 220.577 16.464C220.801 16.688 221.145 16.84 221.609 16.92L224.009 17.376C225.049 17.568 225.833 17.92 226.361 18.432C226.905 18.944 227.177 19.632 227.177 20.496C227.177 21.664 226.721 22.584 225.809 23.256C224.897 23.912 223.681 24.24 222.161 24.24ZM234.842 24.24C233.802 24.24 232.93 24.064 232.226 23.712C231.538 23.36 231.026 22.848 230.69 22.176C230.354 21.488 230.186 20.64 230.186 19.632V14.52H228.938C228.554 14.52 228.258 14.424 228.05 14.232C227.842 14.024 227.738 13.744 227.738 13.392C227.738 13.024 227.842 12.744 228.05 12.552C228.258 12.36 228.554 12.264 228.938 12.264H230.186V10.08C230.186 9.584 230.314 9.208 230.57 8.952C230.842 8.696 231.218 8.568 231.698 8.568C232.178 8.568 232.546 8.696 232.802 8.952C233.058 9.208 233.186 9.584 233.186 10.08V12.264H235.73C236.114 12.264 236.41 12.36 236.618 12.552C236.826 12.744 236.93 13.024 236.93 13.392C236.93 13.744 236.826 14.024 236.618 14.232C236.41 14.424 236.114 14.52 235.73 14.52H233.186V19.464C233.186 20.232 233.354 20.808 233.69 21.192C234.026 21.576 234.57 21.768 235.322 21.768C235.594 21.768 235.834 21.744 236.042 21.696C236.25 21.648 236.434 21.616 236.594 21.6C236.786 21.584 236.946 21.648 237.074 21.792C237.202 21.92 237.266 22.192 237.266 22.608C237.266 22.928 237.21 23.216 237.098 23.472C237.002 23.712 236.818 23.88 236.546 23.976C236.338 24.04 236.066 24.096 235.73 24.144C235.394 24.208 235.098 24.24 234.842 24.24Z" fill="white"/>
</svg>
